#!OML:ASF H:\Male1\Project 1\Capture day 1\Session 1\Male1.ASF
:FULLY-SPECIFIED
:DEGREES
171
root 11.5726 15.375 0.80948 795.456 86.4876 800.437
lowerback 6.3318 0.856331 -4.62158
upperback 4.10779 1.04537 -1.94897
thorax 0.652036 0.519535 0.525357
lowerneck -13.0379 3.71458 6.89584
upperneck 19.2364 4.22424 -1.88378
head 8.32148 2.38574 -1.29226
rclavicle 6.5102e-015 -2.42517e-014
rhumerus -36.5413 6.21246 -91.2513
rradius 34.9543
rwrist -17.2943
rhand -16.4411 -2.2498
rfingers 7.12502
rthumb 9.77463 -32.003
lclavicle 6.5102e-015 -2.42517e-014
lhumerus -21.1589 -17.4334 90.681
lradius 27.8576
lwrist -3.4072
lhand -20.3249 14.4283
lfingers 7.12502
lthumb 6.02612 44.3226
rfemur -20.9262 1.87025 20.2861
rtibia 68.2381
rfoot -13.2231 -19.2249
rtoes -23.5508
lfemur -0.142003 -12.7212 -31.1903
ltibia 23.8654
lfoot -17.1676 10.1972
ltoes -2.5171
172
root 11.8644 15.3585 0.815394 802.028 86.6225 806.945
lowerback 6.33086 0.767562 -4.58978
upperback 4.17633 0.9328 -1.84842
thorax 0.726979 0.460834 0.618183
lowerneck -13.0405 3.72231 6.89648
upperneck 19.3089 4.22359 -1.81513
head 8.34513 2.39415 -1.26898
rclavicle 1.98785e-016 6.75868e-015
rhumerus -36.5938 6.22723 -91.2209
rradius 34.8708
rwrist -17.391
rhand -16.4681 -1.99461
rfingers 7.12502
rthumb 9.74851 -31.749
lclavicle 1.98785e-016 6.75868e-015
lhumerus -19.7421 -19.7235 91.0964
lradius 29.254
lwrist -2.25605
lhand -19.9423 14.825
lfingers 7.12502
lthumb 6.39551 44.7085
rfemur -23.0034 2.84141 20.4308
rtibia 65.7364
rfoot -14.6048 -20.1057
rtoes -22.8204
lfemur 1.27442 -12.8987 -31.4139
ltibia 23.4871
lfoot -17.9907 9.99711
ltoes -0.932361
173
root 12.1618 15.3482 0.824715 810.006 86.7615 814.844
lowerback 6.42262 0.703749 -4.47411
upperback 4.13284 0.843327 -1.75083
thorax 0.634292 0.418078 0.657757
lowerneck -12.878 3.59807 6.79875
upperneck 19.2246 4.06211 -1.70264
head 8.27513 2.32288 -1.2368
rclavicle -1.49089e-016 -2.50469e-014
rhumerus -36.8411 6.00565 -91.1283
rradius 34.8411
rwrist -17.3316
rhand -16.3776 -1.84295
rfingers 7.12502
rthumb 9.83584 -31.5932
lclavicle -1.49089e-016 -2.50469e-014
lhumerus -18.6203 -21.8168 91.4441
lradius 30.883
lwrist -1.10245
lhand -19.8119 15.0888
lfingers 7.12502
lthumb 6.52136 44.9684
rfemur -24.6363 3.82065 20.5353
rtibia 62.4534
rfoot -15.959 -20.9398
rtoes -21.7245
lfemur 2.82934 -12.9551 -31.5389
ltibia 22.8051
lfoot -18.6359 9.84359
ltoes -0.632634
174
root 12.4615 15.3451 0.834535 818.441 86.5952 823.049
lowerback 6.39204 0.60671 -4.64492
upperback 4.0189 0.698135 -1.69175
thorax 0.537852 0.342862 0.822179
lowerneck -12.6634 3.50416 6.72736
upperneck 19.1974 3.95951 -1.66353
head 8.21989 2.27592 -1.22707
rclavicle -3.67752e-015 1.35174e-014
rhumerus -37.1896 5.81616 -90.9999
rradius 35.0184
rwrist -17.1524
rhand -16.2844 -1.79216
rfingers 7.12502
rthumb 9.92575 -31.5382
lclavicle -3.67752e-015 1.35174e-014
lhumerus -17.6708 -23.4871 91.7127
lradius 32.6719
lwrist 0.131693
lhand -20.5685 14.7912
lfingers 7.12502
lthumb 5.79097 44.6921
rfemur -26.0463 4.68933 20.2459
rtibia 58.5049
rfoot -17.2222 -21.7277
rtoes -20.4993
lfemur 4.47317 -12.8877 -31.8391
ltibia 21.6307
lfoot -18.8883 9.76874
ltoes -1.49504
175
root 12.7629 15.3488 0.846424 824.174 86.4075 828.52
lowerback 6.21846 0.544327 -4.85106
upperback 3.99824 0.612837 -1.61658
thorax 0.615209 0.293428 1.02121
lowerneck -12.6671 3.43261 6.46551
upperneck 19.2164 3.87234 -1.44868
head 8.21273 2.23776 -1.12214
rclavicle 1.88845e-015 1.39149e-014
rhumerus -37.3754 5.87926 -90.9241
rradius 35.2788
rwrist -17.1903
rhand -16.2874 -1.96953
rfingers 7.12502
rthumb 9.92286 -31.7157
lclavicle 1.88845e-015 1.39149e-014
lhumerus -16.6738 -24.8772 91.8461
lradius 34.5906
lwrist 1.48621
lhand -19.9579 15.3349
lfingers 7.12502
lthumb 6.38042 45.2188
rfemur -27.1702 5.66334 19.8915
rtibia 54.0534
rfoot -18.26 -22.7646
rtoes -20.4048
lfemur 6.48556 -12.5604 -32.0415
ltibia 19.6417
lfoot -18.6408 9.61744
ltoes -2.11176
176
root 13.0778 15.3449 0.854711 829.153 85.9386 833.384
lowerback 5.95205 0.482439 -5.13681
upperback 4.11474 0.545482 -1.67891
thorax 0.887669 0.250183 1.1229
lowerneck -12.6395 3.38044 6.4186
upperneck 19.0642 3.79958 -1.41379
head 8.1519 2.20013 -1.11222
rclavicle -6.11263e-015 2.46493e-014
rhumerus -37.4098 5.78505 -90.8605
rradius 35.5019
rwrist -17.0604
rhand -16.0709 -2.78694
rfingers 7.12502
rthumb 10.1317 -32.523
lclavicle -6.11263e-015 2.46493e-014
lhumerus -15.6983 -26.1669 91.8488
lradius 36.5235
lwrist 2.82715
lhand -19.9099 15.3421
lfingers 7.12502
lthumb 6.4268 45.2246
rfemur -27.7684 6.45467 19.1902
rtibia 49.2968
rfoot -19.1441 -23.8525
rtoes -19.7113
lfemur 9.082 -12.0409 -32.5121
ltibia 16.988
lfoot -18.062 9.30496
ltoes -2.06709
177
root 13.4155 15.3287 0.852671 832.335 84.8371 836.605
lowerback 5.49499 0.33755 -5.79682
upperback 4.35309 0.387049 -1.96061
thorax 1.40216 0.152125 1.21157
lowerneck -12.8425 3.25925 6.69029
upperneck 19.1287 3.63672 -1.79916
head 8.21559 2.10327 -1.30059
rclavicle 4.91992e-015 9.54166e-015
rhumerus -37.3171 5.77296 -90.8531
rradius 35.5289
rwrist -16.8396
rhand -15.6894 -3.50494
rfingers 7.12502
rthumb 10.4998 -33.2227
lclavicle 4.91992e-015 9.54166e-015
lhumerus -14.8429 -27.2436 91.7857
lradius 38.438
lwrist 4.12604
lhand -20.1974 15.085
lfingers 7.12502
lthumb 6.14923 44.9757
rfemur -27.9153 6.81024 17.7418
rtibia 44.6165
rfoot -20.8094 -24.5775
rtoes -19.2566
lfemur 12.5186 -11.5399 -33.7106
ltibia 13.3178
lfoot -17.0028 9.09596
ltoes -2.37752
178
root 13.7316 15.3043 0.863024 832.882 84.2547 837.101
lowerback 5.31716 0.283365 -6.29005
upperback 4.4297 0.322412 -2.05086
thorax 1.58808 0.106474 1.39649
lowerneck -12.7322 3.23807 6.72494
upperneck 19.0028 3.62161 -1.87857
head 8.1548 2.08913 -1.33644
rclavicle -7.45443e-016 9.54166e-015
rhumerus -37.3562 6.00526 -90.8749
rradius 35.4602
rwrist -16.9568
rhand -15.6842 -3.2962
rfingers 7.12502
rthumb 10.5048 -33.0137
lclavicle -7.45443e-016 9.54166e-015
lhumerus -14.2373 -27.9324 91.7978
lradius 40.4099
lwrist 5.31016
lhand -20.6935 14.8171
lfingers 7.12502
lthumb 5.67032 44.7213
rfemur -28.2903 8.22757 16.6548
rtibia 40.0995
rfoot -22.6968 -25.7997
rtoes -17.9584
lfemur 16.5326 -11.0399 -34.3565
ltibia 8.07299
lfoot -15.1845 9.07494
ltoes -1.81983
179
root 14.0498 15.2901 0.872222 834.054 83.6024 838.257
lowerback 5.15626 0.196992 -6.79065
upperback 4.49444 0.215018 -2.13029
thorax 1.75716 0.0387325 1.59727
lowerneck -12.6737 3.20922 6.76805
upperneck 19.0931 3.61182 -2.02212
head 8.17709 2.0766 -1.39306
rclavicle 4.27387e-015 -6.36111e-015
rhumerus -37.5688 6.11757 -90.8386
rradius 35.3922
rwrist -17.4252
rhand -16.1516 -1.78794
rfingers 7.12502
rthumb 10.0539 -31.5278
lclavicle 4.27387e-015 -6.36111e-015
lhumerus -13.8747 -28.4635 91.9014
lradius 42.3714
lwrist 6.30987
lhand -21.2052 14.5299
lfingers 7.12502
lthumb 5.17625 44.4467
rfemur -28.5248 9.88395 15.4018
rtibia 36.2662
rfoot -25.2852 -26.6782
rtoes -17.2642
lfemur 22.0626 -10.6227 -34.9825
ltibia 8.26944e-014
lfoot -11.8478 8.93393
ltoes -1.26343
180
root 14.3707 15.262 0.886035 836.051 82.9137 840.228
lowerback 5.01269 0.108212 -7.25514
upperback 4.55411 0.10685 -2.2211
thorax 1.91332 -0.0284159 1.76514
lowerneck -12.6665 3.13814 6.86098
upperneck 19.2452 3.52644 -2.1412
head 8.22648 2.03543 -1.4574
rclavicle 8.62228e-015 -1.25234e-014
rhumerus -37.7117 6.0992 -90.7584
rradius 35.5434
rwrist -17.3942
rhand -16.1167 -1.82339
rfingers 7.12502
rthumb 10.0876 -31.5616
lclavicle 8.62228e-015 -1.25234e-014
lhumerus -13.6999 -29.0128 92.0559
lradius 44.2302
lwrist 7.14589
lhand -21.6626 14.2437
lfingers 7.12502
lthumb 4.73453 44.1707
rfemur -28.9829 12.6296 13.7721
rtibia 33.1214
rfoot -27.6793 -29.0914
rtoes -19.1138
lfemur 23.3242 -10.3656 -35.5078
ltibia -6.36111e-015
lfoot -12.1221 8.47829
ltoes -1.72875
181
root 14.6887 15.2307 0.907873 836.509 82.1053 840.569
lowerback 4.82276 0.0554663 -7.96639
upperback 4.5522 0.0434166 -2.36686
thorax 2.03223 -0.0767976 2.01072
lowerneck -12.6203 3.04908 6.86332
upperneck 19.3499 3.39595 -2.06096
head 8.24579 1.98578 -1.4458
rclavicle -7.20594e-015 1.07344e-014
rhumerus -37.8269 6.20477 -90.7551
rradius 35.4979
rwrist -17.4623
rhand -16.0538 -1.63398
rfingers 7.12502
rthumb 10.1483 -31.3692
lclavicle -7.20594e-015 1.07344e-014
lhumerus -13.7755 -29.3395 92.2671
lradius 45.9676
lwrist 7.73951
lhand -22.1222 13.7433
lfingers 7.12502
lthumb 4.29074 43.6798
rfemur -29.5584 16.5848 11.5749
rtibia 30.9834
rfoot -33.3761 -30.254
rtoes -9.99105
lfemur 24.4424 -10.0648 -36.0787
ltibia 3.18055e-015
lfoot -12.2647 7.87688
ltoes -1.61596
182
root 15.0066 15.2041 0.931449 837.968 81.6946 841.92
lowerback 4.6343 0.00362634 -8.2149
upperback 4.53958 -0.0117726 -2.39678
thorax 2.13325 -0.113156 2.11875
lowerneck -12.5393 2.98525 6.79442
upperneck 19.4222 3.31192 -1.95427
head 8.24835 1.95521 -1.40886
rclavicle 1.77912e-014 1.90833e-014
rhumerus -37.8843 6.12037 -90.645
rradius 35.4628
rwrist -17.4346
rhand -15.9513 -1.58429
rfingers 7.12502
rthumb 10.2471 -31.3147
lclavicle 1.77912e-014 1.90833e-014
lhumerus -14.022 -29.3692 92.5685
lradius 47.4858
lwrist 7.92524
lhand -22.4014 12.8716
lfingers 7.12502
lthumb 4.02112 42.8134
rfemur -30.2858 21.0661 9.63756
rtibia 29.7321
rfoot -37.6507 -31.3436
rtoes -2.98387
lfemur 25.5755 -9.76005 -36.1171
ltibia 4.13472e-014
lfoot -12.1183 7.14681
ltoes -2.83667
183
root 15.3257 15.1645 0.953063 840.4 81.4997 844.266
lowerback 4.41235 -0.0971547 -8.15226
upperback 4.56097 -0.122405 -2.33419
thorax 2.28976 -0.174849 2.15088
lowerneck -12.5613 2.93833 6.61347
upperneck 19.4763 3.24281 -1.74781
head 8.26064 1.93127 -1.31723
rclavicle 2.03754e-015 2.5842e-015
rhumerus -37.8942 6.02009 -90.473
rradius 35.5228
rwrist -17.4335
rhand -15.8926 -1.8978
rfingers 7.12502
rthumb 10.3038 -31.6254
lclavicle 2.03754e-015 2.5842e-015
lhumerus -14.2887 -29.086 92.8988
lradius 48.6348
lwrist 7.74808
lhand -22.3958 11.8211
lfingers 7.12502
lthumb 4.02661 41.7628
rfemur -30.5267 22.9847 8.91216
rtibia 29.2764
rfoot -41.0568 -29.7661
rtoes 5.1961
lfemur 26.7885 -9.5044 -35.8415
ltibia -5.08889e-014
lfoot -11.691 6.28773
ltoes -4.51732
184
root 15.649 15.1293 0.971987 841.21 81.0032 844.884
lowerback 4.0822 -0.229083 -8.44841
upperback 4.54967 -0.268535 -2.37013
thorax 2.48291 -0.261866 2.27898
lowerneck -12.6284 2.93822 6.45432
upperneck 19.5687 3.24658 -1.61717
head 8.29885 1.93593 -1.24581
rclavicle -1.73937e-015 -9.93923e-016
rhumerus -37.9132 6.02816 -90.3426
rradius 35.505
rwrist -17.428
rhand -16.0204 -1.76577
rfingers 7.12502
rthumb 10.1805 -31.4994
lclavicle -1.73937e-015 -9.93923e-016
lhumerus -14.6769 -28.5599 93.2057
lradius 49.4234
lwrist 7.38087
lhand -22.2123 10.7829
lfingers 7.12502
lthumb 4.20376 40.7211
rfemur -30.2664 20.9949 9.23639
rtibia 29.4609
rfoot -37.5701 -29.1874
rtoes 2.40074
lfemur 27.8504 -9.22437 -35.9094
ltibia -3.18055e-015
lfoot -11.045 5.38711
ltoes -3.88853
185
root 15.9761 15.0915 0.991823 842.721 80.8188 846.321
lowerback 3.92439 -0.333556 -8.33968
upperback 4.49278 -0.397019 -2.34731
thorax 2.52244 -0.325299 2.24382
lowerneck -12.7817 2.92235 6.42238
upperneck 19.8948 3.23935 -1.65586
head 8.43604 1.93291 -1.25149
rclavicle -2.39287e-014 -1.94809e-014
rhumerus -37.9728 5.8838 -90.1987
rradius 35.3999
rwrist -17.327
rhand -16.2196 -1.4919
rfingers 7.12502
rthumb 9.98828 -31.2349
lclavicle -2.39287e-014 -1.94809e-014
lhumerus -15.3855 -27.9107 93.5893
lradius 49.9152
lwrist 6.91449
lhand -22.0086 10.0021
lfingers 7.12502
lthumb 4.40049 39.9364
rfemur -29.5218 17.7781 10.5427
rtibia 30.0892
rfoot -29.3874 -30.0618
rtoes -13.4466
lfemur 29.007 -8.89936 -35.5857
ltibia -5.725e-014
lfoot -10.2022 4.5742
ltoes -3.31778
